# xmcd
#
# Track frame offsets:
#	150
#	11983
#	24275
#	38997
#	50730
#	59943
#	71448
#	84043
#	93559
#	105708
#	115249
#	125359
#
# Disc length: 1852 seconds
# Revision: 0
# Processed by: cddbd v1.5.2PL0 Copyright (c) Steve Scherf et al.
# Submitted via: dBpowerAMP V12.0
#
DISCID=a2073a0c
DTITLE=Dottie West - The Country Girl Singing Sensation
DYEAR=2009
DGENRE=Country
TTITLE0=Angel On Paper
TTITLE1=Crazy
TTITLE2=Big John
TTITLE3=I'd Be Lying
TTITLE4=Men With Evil Hearts
TTITLE5=Heartbreak Usa
TTITLE6=I Fall To Pieces
TTITLE7=Sing A Little Song Of Heartache
TTITLE8=I Should Start Running
TTITLE9=I Lost, You Win, I'm Leaving
TTITLE10=Walking In The Park
TTITLE11=She's Got You
EXTD=
EXTT0=
EXTT1=
EXTT2=
EXTT3=
EXTT4=
EXTT5=
EXTT6=
EXTT7=
EXTT8=
EXTT9=
EXTT10=
EXTT11=
PLAYORDER=
